---
config:
  theme: default
  themeVariables:
    primaryColor: '#ffcc00'
    edgeLabelBackground: '#ffffff'
    tertiaryColor: '#ffffff'
  look: handDrawn
---
classDiagram
    PresentationLayer : +UserService
    PresentationLayer : +PlaceService
    PresentationLayer : +ReviewService
    PresentationLayer : +AmenityService
    PresentationLayer : +UserAPI
    PresentationLayer : +PlaceAPI
    PresentationLayer : +ReviewAPI
    PresentationLayer : +AmenityAPI

    BusinessLogicLayer : +UserManager
    BusinessLogicLayer : +PlaceManager
    BusinessLogicLayer : +ReviewManager
    BusinessLogicLayer : +AmenityManager
    BusinessLogicLayer : +User
    BusinessLogicLayer : +Place
    BusinessLogicLayer : +Review
    BusinessLogicLayer : +Amenity
    BusinessLogicLayer : +AuthenticationService
    BusinessLogicLayer : +AuthorizationService

    PersistenceLayer : +DatabaseAccessObject

    class UserAPI {
        +registerUser()
        +loginUser()
        +updateUserProfile()
        +getUserProfile()
    }

    class PlaceAPI {
        +addPlace()
        +updatePlace()
        +getPlaceDetails()
        +listPlaces()
    }

    class ReviewAPI {
        +addReview()
        +getReviews()
        +updateReview()
        +deleteReview()
    }

    class AmenityAPI {
        +addAmenity()
        +getAmenities()
        +updateAmenity()
        +deleteAmenity()
    }

    UserAPI --> UserService
    PlaceAPI --> PlaceService
    ReviewAPI --> ReviewService
    AmenityAPI --> AmenityService

    class UserManager {
        +createUser()
        +updateUser()
        +getUser()
        +deleteUser()
    }

    class PlaceManager {
        +createPlace()
        +updatePlace()
        +getPlace()
        +deletePlace()
    }

    class ReviewManager {
        +createReview()
        +updateReview()
        +getReview()
        +deleteReview()
    }

    class AmenityManager {
        +createAmenity()
        +updateAmenity()
        +getAmenity()
        +deleteAmenity()
    }

    class AuthenticationService {
        +authenticate()
        +logout()
    }

    class AuthorizationService {
        +authorize()
    }

    UserManager --> User
    PlaceManager --> Place
    ReviewManager --> Review
    AmenityManager --> Amenity
    AuthenticationService --> UserManager
    AuthorizationService --> UserManager
